<svg xmlns="http://www.w3.org/2000/svg" xmlns:xlink="http://www.w3.org/1999/xlink" viewBox="0 0 120 120"><defs><style>.a{fill:url(#a);}.b{fill:#ff0;}.c{fill:#ccc;}</style><linearGradient id="a" x1="2.471" y1="117.529" x2="117.529" y2="2.471" gradientUnits="userSpaceOnUse"><stop offset="0" stop-color="#00e3ae"/><stop offset="1" stop-color="#9be15d"/></linearGradient></defs><title>icon</title><path class="a" d="M8.438,0H111.563A8.437,8.437,0,0,1,120,8.437V111.563A8.437,8.437,0,0,1,111.563,120H8.438A8.437,8.437,0,0,1,0,111.563V8.438A8.438,8.438,0,0,1,8.438,0Z"/><path class="b" d="M60,104a44,44,0,1,1,44-44A44.05,44.05,0,0,1,60,104Zm0-78A34,34,0,1,0,94,60,34.039,34.039,0,0,0,60,26Z"/><path class="b" d="M8,27.848V9.875A1.875,1.875,0,0,1,9.875,8H27.848a1.875,1.875,0,0,1,1.326,3.2L11.2,29.174A1.875,1.875,0,0,1,8,27.848Z"/><path class="b" d="M92.152,8h17.973A1.875,1.875,0,0,1,112,9.875V27.848a1.875,1.875,0,0,1-3.2,1.326L90.826,11.2A1.875,1.875,0,0,1,92.152,8Z"/><path class="b" d="M27.848,112H9.875A2.127,2.127,0,0,1,8,109.852V91.879a1.875,1.875,0,0,1,3.2-1.326l17.973,18.11A1.971,1.971,0,0,1,27.848,112Z"/><path class="b" d="M108.874,110.282,79.327,95.639,97,77.961l14.643,29.547A2,2,0,0,1,108.874,110.282Z"/><path class="c" d="M111.563,1A7.446,7.446,0,0,1,119,8.437V111.562A7.446,7.446,0,0,1,111.563,119H8.437A7.446,7.446,0,0,1,1,111.562V8.437A7.446,7.446,0,0,1,8.437,1H111.563m0-1H8.437A8.437,8.437,0,0,0,0,8.437V111.562A8.438,8.438,0,0,0,8.437,120H111.563A8.438,8.438,0,0,0,120,111.562V8.437A8.438,8.438,0,0,0,111.563,0Z"/></svg>